<svg width="117" height="130" viewBox="0 0 117 130" fill="none" xmlns="http://www.w3.org/2000/svg">
<rect x="25.1727" y="11.8334" width="85.6468" height="111" rx="11.5" transform="rotate(-0.297828 25.1727 11.8334)" fill="black" stroke="white" stroke-width="11"/>
<rect x="4.84067" y="14.957" width="78.9566" height="111" rx="11.5" transform="rotate(-7.36095 4.84067 14.957)" fill="black" stroke="white" stroke-width="11"/>
<mask id="path-3-outside-1_330_7" maskUnits="userSpaceOnUse" x="32.3064" y="47.1723" width="38.3321" height="40.0594" fill="black">
<rect fill="white" x="32.3064" y="47.1723" width="38.3321" height="40.0594"/>
<path d="M33.9032 52.4249L39.5438 51.6962L52.5499 78.4693L52.9528 78.4172L58.6661 49.2259L64.2758 48.5012L56.3468 83.7135L50.5512 84.4622L33.9032 52.4249Z"/>
</mask>
<path d="M33.9032 52.4249L39.5438 51.6962L52.5499 78.4693L52.9528 78.4172L58.6661 49.2259L64.2758 48.5012L56.3468 83.7135L50.5512 84.4622L33.9032 52.4249Z" fill="white"/>
<path d="M33.9032 52.4249L33.775 51.4331L32.3561 51.6164L33.0158 52.886L33.9032 52.4249ZM39.5438 51.6962L40.4433 51.2592L40.129 50.6123L39.4157 50.7044L39.5438 51.6962ZM52.5499 78.4693L51.6504 78.9062L51.9647 79.5532L52.678 79.461L52.5499 78.4693ZM52.9528 78.4172L53.0809 79.409L53.7957 79.3166L53.9342 78.6093L52.9528 78.4172ZM58.6661 49.2259L58.538 48.2341L57.8232 48.3265L57.6848 49.0338L58.6661 49.2259ZM64.2758 48.5012L65.2513 48.7209L65.5654 47.3263L64.1477 47.5095L64.2758 48.5012ZM56.3468 83.7135L56.4749 84.7053L57.1687 84.6156L57.3224 83.9332L56.3468 83.7135ZM50.5512 84.4622L49.6639 84.9233L49.9862 85.5435L50.6793 85.454L50.5512 84.4622ZM33.9032 52.4249L34.0313 53.4166L39.6719 52.688L39.5438 51.6962L39.4157 50.7044L33.775 51.4331L33.9032 52.4249ZM39.5438 51.6962L38.6443 52.1332L51.6504 78.9062L52.5499 78.4693L53.4494 78.0323L40.4433 51.2592L39.5438 51.6962ZM52.5499 78.4693L52.678 79.461L53.0809 79.409L52.9528 78.4172L52.8247 77.4255L52.4218 77.4775L52.5499 78.4693ZM52.9528 78.4172L53.9342 78.6093L59.6475 49.418L58.6661 49.2259L57.6848 49.0338L51.9714 78.2251L52.9528 78.4172ZM58.6661 49.2259L58.7943 50.2177L64.4039 49.493L64.2758 48.5012L64.1477 47.5095L58.538 48.2341L58.6661 49.2259ZM64.2758 48.5012L63.3002 48.2815L55.3712 83.4938L56.3468 83.7135L57.3224 83.9332L65.2513 48.7209L64.2758 48.5012ZM56.3468 83.7135L56.2187 82.7218L50.4231 83.4705L50.5512 84.4622L50.6793 85.454L56.4749 84.7053L56.3468 83.7135ZM50.5512 84.4622L51.4386 84.0011L34.7905 51.9638L33.9032 52.4249L33.0158 52.886L49.6639 84.9233L50.5512 84.4622Z" fill="white" mask="url(#path-3-outside-1_330_7)"/>
</svg>
