<svg width="117" height="130" viewBox="0 0 117 130" fill="none" xmlns="http://www.w3.org/2000/svg">
<rect x="25.1727" y="11.8314" width="85.6468" height="111" rx="11.5" transform="rotate(-0.297828 25.1727 11.8314)" fill="black" stroke="white" stroke-width="11"/>
<rect x="4.84067" y="14.957" width="78.9566" height="111" rx="11.5" transform="rotate(-7.36095 4.84067 14.957)" fill="black" stroke="white" stroke-width="11"/>
<mask id="path-3-outside-1_330_7" maskUnits="userSpaceOnUse" x="32.7525" y="39.5032" width="35.0389" height="52.3116" fill="black">
<rect fill="white" x="32.7525" y="39.5032" width="35.0389" height="52.3116"/>
<path d="M36.1447 56.5501C35.5517 49.0329 40.0379 43.7584 47.786 42.7575C55.2862 41.7886 61.2525 45.7758 62.1013 52.3462C62.6858 56.8711 61.0388 60.7075 57.1561 63.8244C53.6753 66.6373 52.7488 68.49 53.1732 71.7752L53.4334 73.7897L48.0407 74.4863L47.6764 71.666C47.0819 67.552 48.6161 64.5495 52.4678 61.4366C55.7436 58.7447 56.7931 56.624 56.3727 53.3698C55.8682 49.4648 52.5486 47.1838 48.2097 47.7443C43.7158 48.3248 41.1818 51.3935 41.3824 55.8735L36.1447 56.5501ZM52.8278 88.6145C50.4723 88.9187 48.3296 87.2104 48.0133 84.762C47.697 82.3136 49.3353 80.1169 51.6907 79.8126C54.0461 79.5083 56.1889 81.2166 56.5052 83.665C56.8215 86.1134 55.1832 88.3102 52.8278 88.6145Z"/>
</mask>
<path d="M36.1447 56.5501C35.5517 49.0329 40.0379 43.7584 47.786 42.7575C55.2862 41.7886 61.2525 45.7758 62.1013 52.3462C62.6858 56.8711 61.0388 60.7075 57.1561 63.8244C53.6753 66.6373 52.7488 68.49 53.1732 71.7752L53.4334 73.7897L48.0407 74.4863L47.6764 71.666C47.0819 67.552 48.6161 64.5495 52.4678 61.4366C55.7436 58.7447 56.7931 56.624 56.3727 53.3698C55.8682 49.4648 52.5486 47.1838 48.2097 47.7443C43.7158 48.3248 41.1818 51.3935 41.3824 55.8735L36.1447 56.5501ZM52.8278 88.6145C50.4723 88.9187 48.3296 87.2104 48.0133 84.762C47.697 82.3136 49.3353 80.1169 51.6907 79.8126C54.0461 79.5083 56.1889 81.2166 56.5052 83.665C56.8215 86.1134 55.1832 88.3102 52.8278 88.6145Z" fill="white"/>
<path d="M36.1447 56.5501L35.1478 56.6288L35.2305 57.6766L36.2728 57.5419L36.1447 56.5501ZM57.1561 63.8244L56.5301 63.0445L56.5275 63.0466L57.1561 63.8244ZM53.4334 73.7897L53.5615 74.7815L54.5533 74.6533L54.4252 73.6616L53.4334 73.7897ZM48.0407 74.4863L47.049 74.6145L47.1771 75.6062L48.1688 75.4781L48.0407 74.4863ZM47.6764 71.666L48.6681 71.5379L48.6672 71.5305L48.6661 71.523L47.6764 71.666ZM52.4678 61.4366L53.0964 62.2144L53.1027 62.2092L52.4678 61.4366ZM41.3824 55.8735L41.5105 56.8653L42.4226 56.7474L42.3814 55.8288L41.3824 55.8735ZM36.1447 56.5501L37.1416 56.4715C36.8627 52.9353 37.7798 50.0092 39.601 47.856C41.4259 45.6984 44.2377 44.2242 47.9142 43.7492L47.786 42.7575L47.6579 41.7657C43.5863 42.2917 40.2809 43.9552 38.0739 46.5644C35.8633 49.178 34.8338 52.6478 35.1478 56.6288L36.1447 56.5501ZM47.786 42.7575L47.9142 43.7492C54.9961 42.8344 60.3471 46.5727 61.1095 52.4743L62.1013 52.3462L63.093 52.2181C62.1578 44.9789 55.5763 40.7428 47.6579 41.7657L47.786 42.7575ZM62.1013 52.3462L61.1095 52.4743C61.6449 56.6186 60.1696 60.1229 56.5301 63.0446L57.1561 63.8244L57.7821 64.6042C61.9079 61.2921 63.7267 57.1236 63.093 52.2181L62.1013 52.3462ZM57.1561 63.8244L56.5275 63.0466C54.7553 64.4788 53.5174 65.7544 52.806 67.1749C52.0754 68.6339 51.953 70.1356 52.1814 71.9033L53.1732 71.7752L54.1649 71.6471C53.9689 70.1296 54.0976 69.0623 54.5943 68.0704C55.1103 67.04 56.0761 65.9829 57.7846 64.6021L57.1561 63.8244ZM53.1732 71.7752L52.1814 71.9033L52.4417 73.9178L53.4334 73.7897L54.4252 73.6616L54.1649 71.6471L53.1732 71.7752ZM53.4334 73.7897L53.3053 72.7979L47.9126 73.4946L48.0407 74.4863L48.1688 75.4781L53.5615 74.7815L53.4334 73.7897ZM48.0407 74.4863L49.0325 74.3582L48.6681 71.5379L47.6764 71.666L46.6846 71.7941L47.049 74.6145L48.0407 74.4863ZM47.6764 71.666L48.6661 71.523C48.3932 69.6342 48.613 68.059 49.307 66.6072C50.0102 65.1361 51.2357 63.7181 53.0963 62.2144L52.4678 61.4366L51.8392 60.6589C49.8482 62.268 48.3807 63.9077 47.5026 65.7446C46.6152 67.6008 46.3651 69.5839 46.6867 71.809L47.6764 71.666ZM52.4678 61.4366L53.1027 62.2092C54.7885 60.8239 55.9953 59.512 56.7056 58.0514C57.4294 56.5632 57.5934 55.0138 57.3645 53.2417L56.3727 53.3698L55.3809 53.4979C55.5724 54.9801 55.4219 56.1181 54.907 57.1767C54.3788 58.263 53.423 59.3574 51.8329 60.664L52.4678 61.4366ZM56.3727 53.3698L57.3645 53.2417C57.0778 51.0226 55.9776 49.2166 54.2962 48.0588C52.6246 46.9078 50.4524 46.4463 48.0816 46.7525L48.2097 47.7443L48.3378 48.7361C50.3059 48.4818 51.963 48.8805 53.162 49.7061C54.3513 50.525 55.1631 51.812 55.3809 53.4979L56.3727 53.3698ZM48.2097 47.7443L48.0816 46.7525C45.6327 47.0689 43.6282 48.0786 42.2684 49.7052C40.9092 51.3312 40.2741 53.4775 40.3834 55.9182L41.3824 55.8735L42.3814 55.8288C42.2901 53.7896 42.8218 52.1616 43.8028 50.988C44.7833 49.8152 46.2928 49.0002 48.3378 48.7361L48.2097 47.7443ZM41.3824 55.8735L41.2543 54.8817L36.0166 55.5584L36.1447 56.5501L36.2728 57.5419L41.5105 56.8653L41.3824 55.8735ZM52.8278 88.6145L52.6996 87.6227C50.9241 87.8521 49.2548 86.5674 49.005 84.6339L48.0133 84.762L47.0215 84.8902C47.4043 87.8535 50.0205 89.9854 52.9559 89.6062L52.8278 88.6145ZM48.0133 84.762L49.005 84.6339C48.7553 82.7005 50.0433 81.0337 51.8188 80.8044L51.6907 79.8126L51.5626 78.8208C48.6272 79.2 46.6387 81.9268 47.0215 84.8902L48.0133 84.762ZM51.6907 79.8126L51.8188 80.8044C53.5943 80.575 55.2637 81.8597 55.5134 83.7931L56.5052 83.665L57.497 83.5369C57.1141 80.5735 54.4979 78.4416 51.5626 78.8208L51.6907 79.8126ZM56.5052 83.665L55.5134 83.7931C55.7632 85.7266 54.4751 87.3933 52.6996 87.6227L52.8278 88.6145L52.9559 89.6062C55.8912 89.227 57.8798 86.5003 57.497 83.5369L56.5052 83.665Z" fill="white" mask="url(#path-3-outside-1_330_7)"/>
</svg>
